<?xml version="1.0" standalone="no"?>
<!DOCTYPE svg PUBLIC "-//W3C//DTD SVG 20010904//EN"
 "http://www.w3.org/TR/2001/REC-SVG-20010904/DTD/svg10.dtd">
<svg version="1.0" xmlns="http://www.w3.org/2000/svg"
 width="264.000000pt" height="479.000000pt" viewBox="0 0 264.000000 479.000000"
 preserveAspectRatio="xMidYMid meet">

<g transform="translate(0.000000,479.000000) scale(0.100000,-0.100000)"
fill="#000000" stroke="none">
<path d="M0 2395 c0 -1317 3 -2395 8 -2395 4 0 63 7 132 15 120 14 298 29 647
56 l163 13 2 1010 3 1010 334 -944 c183 -520 345 -975 359 -1012 l24 -68 57 0
c137 0 785 -56 884 -76 l27 -6 0 2396 0 2396 -475 0 -475 0 -2 -1050 -3 -1050
-371 1048 -370 1047 -472 3 -472 2 0 -2395z"/>
</g>
</svg>
